<svg id="Layer_1" data-name="Layer 1" xmlns="http://www.w3.org/2000/svg" viewBox="0 0 841.89 242.12"><defs><style>.cls-1{font-size:64.82px;font-family:GaramondThreeBold;letter-spacing:0.02em;}.cls-1,.cls-4{fill:#fdc010;}.cls-2{font-size:40px;fill:#58595b;font-family:Futura;letter-spacing:0.02em;}.cls-3{fill:none;stroke:#fdc010;stroke-miterlimit:10;}</style></defs><text class="cls-1" transform="translate(352.2 106.69)">BALANCE</text><text class="cls-2" transform="translate(347.37 174.26)">IDO LAUNCHPAD</text><line class="cls-3" x1="331.85" y1="126.4" x2="677.39" y2="126.4"/><path class="cls-4" d="M224.41,160V95h29.38q16.47,0,24.41,5t8.05,13.39q0,12.21-17.44,13.22,9.93,1,14.57,4.54T288,141.41q0,8.37-7.81,13.47T259.78,160Zm25.26-39.73h1.69a14.68,14.68,0,0,0,7.18-1.48,4.53,4.53,0,0,0,2.64-4.12q0-5.64-8.91-5.64c-.28,0-.63,0-1.06,0l-1.54.06Zm0,25.63,1.27.07.91,0a14.34,14.34,0,0,0,7.54-1.73,5.23,5.23,0,0,0,2.82-4.63,5.06,5.06,0,0,0-2.82-4.55,15.4,15.4,0,0,0-7.72-1.64h-2Z"/><rect class="cls-4" x="165.71" y="50.37" width="14.75" height="14.52"/><rect class="cls-4" x="202.61" y="50.37" width="14.75" height="14.52"/><rect class="cls-4" x="184.1" y="68.55" width="14.75" height="14.52"/><rect class="cls-4" x="165.71" y="86.21" width="14.75" height="14.52"/><path class="cls-4" d="M236.09,49.46A44.18,44.18,0,0,0,224,50.93l-.69.22V71.22H204.89v18H186.37v17.64H166.31a59.43,59.43,0,0,0-1.81,14.64,71.21,71.21,0,0,0,70.84,71.15c39.56.4,72.3-31.94,72.34-71.5A71.6,71.6,0,0,0,236.09,49.46Zm-34.22,72.65H186.46V132h-9.91v-9.91h9.91V106.86h15.41Zm50.47,52.33a48.28,48.28,0,1,1,48.28-48.28A48.27,48.27,0,0,1,252.34,174.44Z"/></svg>