<?xml version="1.0" encoding="utf-8"?>
<!-- Generator: Adobe Illustrator 16.0.0, SVG Export Plug-In . SVG Version: 6.00 Build 0)  -->
<!DOCTYPE svg PUBLIC "-//W3C//DTD SVG 1.1//EN" "http://www.w3.org/Graphics/SVG/1.1/DTD/svg11.dtd">
<svg version="1.1" id="Layer_1" xmlns="http://www.w3.org/2000/svg" xmlns:xlink="http://www.w3.org/1999/xlink" x="0px" y="0px"
	 width="200px" height="70px" viewBox="0 0 200 70" enable-background="new 0 0 200 70" xml:space="preserve">
<text transform="matrix(0.9978 0 0 1 73.1313 29.8267)"><tspan x="0" y="0" fill="#FBC014" font-family="'GaramondThreeBold'" font-size="24.7527">BA</tspan><tspan x="35.371" y="0" fill="#FBC014" font-family="'GaramondThreeBold'" font-size="24.7527">L</tspan><tspan x="49.604" y="0" fill="#FBC014" font-family="'GaramondThreeBold'" font-size="24.7527">AN</tspan><tspan x="87.723" y="0" fill="#FBC014" font-family="'GaramondThreeBold'" font-size="24.7527">C</tspan><tspan x="103.317" y="0" fill="#FBC014" font-family="'GaramondThreeBold'" font-size="24.7527">E</tspan></text>
<text transform="matrix(0.9978 0 0 1 72.7813 55.5195)"><tspan x="0" y="0" fill="#FFFFFF" font-family="'Futura'" font-size="15.1452">ID</tspan><tspan x="14.161" y="0" fill="#FFFFFF" font-family="'Futura'" font-size="15.1452">O </tspan><tspan x="31.683" y="0" fill="#FFFFFF" font-family="'Futura'" font-size="15.1452">L</tspan><tspan x="37.802" y="0" fill="#FFFFFF" font-family="'Futura'" font-size="15.1452">AUNCHPA</tspan><tspan x="110.968" y="0" fill="#FFFFFF" font-family="'Futura'" font-size="15.1452">D</tspan></text>
<line fill="none" stroke="#FBC014" stroke-width="0.423" stroke-miterlimit="10" x1="65.456" y1="37.358" x2="197.106" y2="37.358"/>
<g>
	<path fill="#FBC014" d="M24.444,50.192V25.373h11.193c4.184,0,7.286,0.644,9.301,1.929c2.046,1.318,3.069,3.022,3.069,5.112
		c0,3.107-2.215,4.79-6.647,5.048c2.523,0.257,4.374,0.834,5.551,1.735c1.178,0.9,1.765,2.196,1.765,3.89
		c0,2.134-0.992,3.848-2.977,5.144c-1.969,1.308-4.562,1.962-7.777,1.962H24.444z M34.067,35.019h0.647
		c1.155,0,2.065-0.189,2.735-0.564c0.669-0.375,1.004-0.9,1.004-1.575c0-1.435-1.132-2.154-3.393-2.154
		c-0.108,0-0.242,0.002-0.404,0.007c-0.161,0.006-0.358,0.015-0.589,0.025V35.019z M34.067,44.807
		c0.185,0.012,0.347,0.021,0.486,0.026c0.137,0.006,0.253,0.006,0.346,0.006c1.201,0,2.158-0.218,2.873-0.66
		c0.715-0.438,1.074-1.026,1.074-1.767s-0.358-1.317-1.074-1.736c-0.715-0.418-1.696-0.626-2.942-0.626h-0.762V44.807z"/>
	<rect x="2.081" y="8.325" fill="#FBC014" width="5.618" height="5.547"/>
	<rect x="16.138" y="8.325" fill="#FBC014" width="5.619" height="5.547"/>
	<rect x="9.087" y="15.266" fill="#FBC014" width="5.619" height="5.546"/>
	<rect x="2.081" y="22.009" fill="#FBC014" width="5.618" height="5.545"/>
	<path fill="#FBC014" d="M28.896,7.978c-2.026,0-2.722,0.138-4.622,0.559l-0.262,0.085v7.661h-7.005v6.874H9.952v6.74H2.31
		c-0.453,1.974-0.693,3.477-0.693,5.589c0,15.003,12.06,27.015,26.992,27.167c15.073,0.152,27.545-12.196,27.564-27.303
		C56.192,20.236,43.972,7.978,28.896,7.978 M15.857,35.717h-5.87v0.013v3.37v0.401H6.21v-3.785h3.776v-5.821h5.87V35.717z
		 M35.087,55.699c-10.159,0-18.393-8.254-18.393-18.434c0-10.181,8.234-18.434,18.393-18.434S53.48,27.085,53.48,37.266
		C53.48,47.445,45.246,55.699,35.087,55.699"/>
</g>
</svg>
